<svg width="200" height="53" viewBox="0 0 200 53" fill="none" xmlns="http://www.w3.org/2000/svg">
<path d="M199.393 19.8672C199.393 23.6922 198.962 26.8107 198.101 29.2229C196.791 32.8928 194.629 35.7184 191.614 37.6998C188.702 39.5951 185.256 40.5427 181.276 40.5427C174.798 40.5427 169.827 38.3373 166.364 33.9266C163.745 30.584 162.436 26.5954 162.436 21.9606C162.436 16.8262 163.969 12.5102 167.036 9.01254C170.516 5.0325 175.375 3.04248 181.612 3.04248C185.782 3.04248 189.314 4.11072 192.208 6.24719C194.276 7.76339 196.042 10.0032 197.506 12.9667L188.797 16.5591C188.056 14.9051 187.195 13.6645 186.212 12.8375C184.8 11.6659 183.12 11.0801 181.173 11.0801C177.193 11.0801 174.419 13.139 172.851 17.2569C172.265 18.7731 171.972 20.341 171.972 21.9606C171.972 25.3204 173.032 28.1202 175.151 30.36C176.719 32.0313 178.812 32.8669 181.431 32.8669C183.757 32.8669 185.601 32.1864 186.962 30.8252C187.858 29.9293 188.444 28.6026 188.719 26.8452H181.199V19.8672H199.393Z" fill="url(#paint0_linear_4_1855)"/>
<path d="M109.555 39.4573H89.3704V4.17969H98.5451V31.7815H109.555V39.4573Z" fill="url(#paint1_linear_4_1855)"/>
<path d="M84.4844 15.8097C84.4844 18.9972 83.7349 21.6333 82.236 23.7181C80.289 26.4231 77.0585 27.7756 72.5443 27.7756H66.8068V39.4573H57.6321V4.17969H72.2342C76.3865 4.17969 79.5395 5.39438 81.6932 7.82375C83.554 9.90853 84.4844 12.5705 84.4844 15.8097ZM74.9478 15.9131C74.9478 14.6036 74.5602 13.5612 73.7848 12.7859C73.0267 11.9933 71.7259 11.597 69.8823 11.597H66.8068V20.3583H69.8565C71.8379 20.3583 73.199 19.9276 73.9399 19.0661C74.6119 18.2907 74.9478 17.2397 74.9478 15.9131Z" fill="url(#paint2_linear_4_1855)"/>
<path d="M51.8184 39.4573H31.7373V4.17969H51.8184V11.8555H40.9121V17.8255H51.224V25.5013H40.9121V31.7815H51.8184V39.4573Z" fill="url(#paint3_linear_4_1855)"/>
<path d="M26.8524 15.8097C26.8524 18.9972 26.1029 21.6333 24.6039 23.7181C22.6569 26.4231 19.4264 27.7756 14.9122 27.7756H9.17477V39.4573H0V4.17969H14.6021C18.7544 4.17969 21.9075 5.39438 24.0612 7.82375C25.922 9.90853 26.8524 12.5705 26.8524 15.8097ZM17.3158 15.9131C17.3158 14.6036 16.9281 13.5612 16.1528 12.7859C15.3947 11.9933 14.0938 11.597 12.2503 11.597H9.17477V20.3583H12.2244C14.2058 20.3583 15.567 19.9276 16.3078 19.0661C16.9798 18.2907 17.3158 17.2397 17.3158 15.9131Z" fill="url(#paint4_linear_4_1855)"/>
<path d="M134.612 42.85L134.636 42.8502L134.636 42.8263L134.642 42.8206L134.636 42.8177L134.711 29.292C130.583 29.2576 127.246 25.9001 127.246 21.7633C127.246 17.6051 130.617 14.2343 134.775 14.2343L134.784 14.2343C134.787 14.2343 134.791 14.2343 134.795 14.2343L134.868 0.999345C132.12 0.984121 129.396 1.5103 126.851 2.54783C124.307 3.58537 121.991 5.11394 120.038 7.04628C118.084 8.97862 116.53 11.2769 115.464 13.8098C114.398 16.3428 113.842 19.0609 113.827 21.8088C113.812 24.5568 114.338 27.2809 115.375 29.8255C116.413 32.3701 117.941 34.6854 119.874 36.6393C121.279 38.0601 122.878 39.2696 124.619 40.2335L124.21 52.9999L134.612 42.85Z" fill="url(#paint5_linear_4_1855)"/>
<path d="M149.339 37.7493C153.153 34.5042 155.678 29.9985 156.453 25.0507C157.229 20.1028 156.204 15.041 153.565 10.7844C153.083 10.0067 152.552 9.26529 151.979 8.56372L140.156 16.4057C141.548 17.7718 142.411 19.6745 142.411 21.7788C142.411 25.6351 139.512 28.8143 135.774 29.2555C135.762 29.2569 135.75 29.2582 135.738 29.2596L135.664 42.7361L135.674 42.7361L135.683 42.7362C135.688 42.7362 135.694 42.7362 135.7 42.7363C140.695 42.7554 145.533 40.9867 149.339 37.7493Z" fill="url(#paint6_linear_4_1855)"/>
<path d="M151.031 8.15128C149.288 5.77122 147.037 3.80296 144.438 2.39176C141.839 0.980551 138.962 0.165315 136.017 0L135.878 14.3822C137.202 14.5561 138.418 15.0743 139.433 15.8439L151.031 8.15128Z" fill="url(#paint7_linear_4_1855)"/>
<defs>
<linearGradient id="paint0_linear_4_1855" x1="180.914" y1="3.04248" x2="180.914" y2="39.2458" gradientUnits="userSpaceOnUse">
<stop stop-color="#03AFEE"/>
<stop offset="1" stop-color="#0475A1"/>
</linearGradient>
<linearGradient id="paint1_linear_4_1855" x1="99.4626" y1="4.17969" x2="99.4626" y2="38.2373" gradientUnits="userSpaceOnUse">
<stop stop-color="#03AFEE"/>
<stop offset="1" stop-color="#0475A1"/>
</linearGradient>
<linearGradient id="paint2_linear_4_1855" x1="71.0583" y1="4.17969" x2="71.0583" y2="38.2373" gradientUnits="userSpaceOnUse">
<stop stop-color="#03AFEE"/>
<stop offset="1" stop-color="#0475A1"/>
</linearGradient>
<linearGradient id="paint3_linear_4_1855" x1="41.7779" y1="4.17969" x2="41.7779" y2="38.2373" gradientUnits="userSpaceOnUse">
<stop stop-color="#03AFEE"/>
<stop offset="1" stop-color="#0475A1"/>
</linearGradient>
<linearGradient id="paint4_linear_4_1855" x1="13.4262" y1="4.17969" x2="13.4262" y2="38.2373" gradientUnits="userSpaceOnUse">
<stop stop-color="#03AFEE"/>
<stop offset="1" stop-color="#0475A1"/>
</linearGradient>
<linearGradient id="paint5_linear_4_1855" x1="124.347" y1="0.999023" x2="124.347" y2="50.9582" gradientUnits="userSpaceOnUse">
<stop offset="0.357388" stop-color="#FFEE93"/>
<stop offset="1" stop-color="#A09559"/>
</linearGradient>
<linearGradient id="paint6_linear_4_1855" x1="142.962" y1="28.5107" x2="155.592" y2="32.2963" gradientUnits="userSpaceOnUse">
<stop stop-color="#E8AA89"/>
<stop offset="0.430693" stop-color="#FFC09F"/>
</linearGradient>
<linearGradient id="paint7_linear_4_1855" x1="143.213" y1="1.38496" x2="138.038" y2="16.4161" gradientUnits="userSpaceOnUse">
<stop offset="0.0053598" stop-color="#ADF7B6"/>
<stop offset="0.689706" stop-color="#81C689"/>
</linearGradient>
</defs>
</svg>
